<svg xmlns="http://www.w3.org/2000/svg" style="display:none">
  <defs>
    <!-- Современный минималистичный набор иконок (stroke 1.75) -->
    <symbol id="icon-robot" viewBox="0 0 24 24" fill="none" stroke="currentColor" stroke-width="1.75" stroke-linecap="round" stroke-linejoin="round">
      <rect x="4" y="9" width="16" height="10" rx="3"/>
      <rect x="7.5" y="11.5" width="3" height="3" rx="1.5"/>
      <rect x="13.5" y="11.5" width="3" height="3" rx="1.5"/>
      <path d="M12 9V6"/>
      <circle cx="12" cy="4" r="1.75"/>
    </symbol>

    <symbol id="icon-chart" viewBox="0 0 24 24" fill="none" stroke="currentColor" stroke-width="1.75" stroke-linecap="round" stroke-linejoin="round">
      <path d="M4 20h16"/>
      <rect x="6" y="11" width="3" height="7" rx="1.2"/>
      <rect x="11" y="7" width="3" height="11" rx="1.2"/>
      <rect x="16" y="9" width="3" height="9" rx="1.2"/>
    </symbol>

    <symbol id="icon-money" viewBox="0 0 24 24" fill="none" stroke="currentColor" stroke-width="1.75" stroke-linecap="round" stroke-linejoin="round">
      <circle cx="12" cy="12" r="9"/>
      <path d="M9 9h4a2 2 0 1 1 0 4h-2a2 2 0 1 0 0 4h5"/>
      <path d="M12 6v12"/>
    </symbol>

    <symbol id="icon-trend-up" viewBox="0 0 24 24" fill="none" stroke="currentColor" stroke-width="1.75" stroke-linecap="round" stroke-linejoin="round">
      <path d="M3 17l6-6 4 4 7-7"/>
      <path d="M17 8h3v3"/>
    </symbol>

    <symbol id="icon-trend-down" viewBox="0 0 24 24" fill="none" stroke="currentColor" stroke-width="1.75" stroke-linecap="round" stroke-linejoin="round">
      <path d="M3 7l6 6 4-4 7 7"/>
      <path d="M17 16h3v-3"/>
    </symbol>

    <symbol id="icon-warning" viewBox="0 0 24 24" fill="none" stroke="currentColor" stroke-width="1.75" stroke-linecap="round" stroke-linejoin="round">
      <path d="M10.4 3.8L2.4 18a2 2 0 0 0 1.7 3h15.8a2 2 0 0 0 1.7-3l-8-14.2a2 2 0 0 0-3.4 0z"/>
      <path d="M12 9v5"/>
      <path d="M12 17.5h.01"/>
    </symbol>

    <symbol id="icon-check" viewBox="0 0 24 24" fill="none" stroke="currentColor" stroke-width="1.75" stroke-linecap="round" stroke-linejoin="round">
      <path d="M20 6l-11 11-5-5"/>
    </symbol>

    <symbol id="icon-close" viewBox="0 0 24 24" fill="none" stroke="currentColor" stroke-width="1.75" stroke-linecap="round" stroke-linejoin="round">
      <path d="M18 6L6 18M6 6l12 12"/>
    </symbol>

    <symbol id="icon-pause" viewBox="0 0 24 24" fill="none" stroke="currentColor" stroke-width="1.75" stroke-linecap="round" stroke-linejoin="round">
      <rect x="6" y="4" width="4" height="16" rx="1.5"/>
      <rect x="14" y="4" width="4" height="16" rx="1.5"/>
    </symbol>

    <symbol id="icon-play" viewBox="0 0 24 24" fill="none" stroke="currentColor" stroke-width="1.75" stroke-linecap="round" stroke-linejoin="round">
      <path d="M6 4l13 8L6 20V4z"/>
    </symbol>

    <symbol id="icon-refresh" viewBox="0 0 24 24" fill="none" stroke="currentColor" stroke-width="1.75" stroke-linecap="round" stroke-linejoin="round">
      <path d="M21 10a9 9 0 1 0 2.3 6"/>
      <path d="M21 4v6h-6"/>
    </symbol>

    <symbol id="icon-list" viewBox="0 0 24 24" fill="none" stroke="currentColor" stroke-width="1.75" stroke-linecap="round" stroke-linejoin="round">
      <path d="M8 6h13M8 12h13M8 18h13"/>
      <path d="M3 6h.01M3 12h.01M3 18h.01"/>
    </symbol>

    <symbol id="icon-settings" viewBox="0 0 24 24" fill="none" stroke="currentColor" stroke-width="1.75" stroke-linecap="round" stroke-linejoin="round">
      <circle cx="12" cy="12" r="3"/>
      <path d="M19.4 15a1.65 1.65 0 0 0 .33 1.82l.06.06a2 2 0 1 1-2.83 2.83l-.06-.06a1.65 1.65 0 0 0-1.82-.33 1.65 1.65 0 0 0-1 1.51V22a2 2 0 1 1-4 0v-.17a1.65 1.65 0 0 0-1-1.51 1.65 1.65 0 0 0-1.82.33l-.06.06A2 2 0 1 1 4.2 19.7l.06-.06a1.65 1.65 0 0 0 .33-1.82 1.65 1.65 0 0 0-1.51-1H3a2 2 0 1 1 0-4h.17a1.65 1.65 0 0 0 1.51-1 1.65 1.65 0 0 0-.33-1.82l-.06-.06A2 2 0 1 1 6.2 4.2l.06.06a1.65 1.65 0 0 0 1.82.33H8.3a1.65 1.65 0 0 0 1-1.51V3a2 2 0 1 1 4 0v.17a1.65 1.65 0 0 0 1 1.51 1.65 1.65 0 0 0 1.82-.33l.06-.06A2 2 0 1 1 19.8 6.2l-.06.06a1.65 1.65 0 0 0-.33 1.82v.06a1.65 1.65 0 0 0 1.51 1H21a2 2 0 1 1 0 4h-.17a1.65 1.65 0 0 0-1.51 1z"/>
    </symbol>

    <symbol id="icon-wallet" viewBox="0 0 24 24" fill="none" stroke="currentColor" stroke-width="1.75" stroke-linecap="round" stroke-linejoin="round">
      <rect x="3" y="6" width="18" height="12" rx="3"/>
      <path d="M15 12h6v4h-6a2 2 0 0 1 0-4z"/>
    </symbol>

    <symbol id="icon-target" viewBox="0 0 24 24" fill="none" stroke="currentColor" stroke-width="1.75" stroke-linecap="round" stroke-linejoin="round">
      <circle cx="12" cy="12" r="9"/>
      <circle cx="12" cy="12" r="5"/>
      <circle cx="12" cy="12" r="2"/>
    </symbol>

    <symbol id="icon-bell" viewBox="0 0 24 24" fill="none" stroke="currentColor" stroke-width="1.75" stroke-linecap="round" stroke-linejoin="round">
      <path d="M18 8a6 6 0 0 0-12 0c0 7-3 9-3 9h18s-3-2-3-9"/>
      <path d="M13.7 21a2 2 0 0 1-3.4 0"/>
    </symbol>

    <symbol id="icon-phone" viewBox="0 0 24 24" fill="none" stroke="currentColor" stroke-width="1.75" stroke-linecap="round" stroke-linejoin="round">
      <rect x="7" y="2.5" width="10" height="19" rx="2"/>
      <path d="M12 18.5h.01"/>
    </symbol>

    <symbol id="icon-card" viewBox="0 0 24 24" fill="none" stroke="currentColor" stroke-width="1.75" stroke-linecap="round" stroke-linejoin="round">
      <rect x="2" y="4" width="20" height="16" rx="3"/>
      <path d="M2 10h20"/>
    </symbol>

    <symbol id="icon-stop" viewBox="0 0 24 24" fill="none" stroke="currentColor" stroke-width="1.75" stroke-linecap="round" stroke-linejoin="round">
      <rect x="7" y="7" width="10" height="10" rx="2"/>
    </symbol>

    <symbol id="icon-home" viewBox="0 0 24 24" fill="none" stroke="currentColor" stroke-width="1.75" stroke-linecap="round" stroke-linejoin="round">
      <path d="M3 10.5L12 4l9 6.5V19a3 3 0 0 1-3 3H6a3 3 0 0 1-3-3v-8.5z"/>
      <path d="M9 22v-7h6v7"/>
    </symbol>

    <symbol id="icon-gamepad" viewBox="0 0 24 24" fill="none" stroke="currentColor" stroke-width="1.75" stroke-linecap="round" stroke-linejoin="round">
      <path d="M4 10h16"/>
      <path d="M8 6v12M16 6v12"/>
    </symbol>

    <symbol id="icon-document" viewBox="0 0 24 24" fill="none" stroke="currentColor" stroke-width="1.75" stroke-linecap="round" stroke-linejoin="round">
      <path d="M14 2H7a3 3 0 0 0-3 3v14a3 3 0 0 0 3 3h10a3 3 0 0 0 3-3V8z"/>
      <path d="M14 2v6h6"/>
      <path d="M9 13h6M9 17h6M9 9h2"/>
    </symbol>

    <symbol id="icon-pin" viewBox="0 0 24 24" fill="none" stroke="currentColor" stroke-width="1.75" stroke-linecap="round" stroke-linejoin="round">
      <path d="M21 11c0 7-9 11-9 11S3 18 3 11a9 9 0 1 1 18 0z"/>
      <circle cx="12" cy="11" r="2.8"/>
    </symbol>

    <symbol id="icon-trash" viewBox="0 0 24 24" fill="none" stroke="currentColor" stroke-width="1.75" stroke-linecap="round" stroke-linejoin="round">
      <path d="M3.5 6h17"/>
      <path d="M19 6v13a3 3 0 0 1-3 3H8a3 3 0 0 1-3-3V6"/>
      <path d="M9.5 11v7M14.5 11v7"/>
      <rect x="9" y="2.5" width="6" height="3.5" rx="1.5"/>
    </symbol>

    <symbol id="icon-save" viewBox="0 0 24 24" fill="none" stroke="currentColor" stroke-width="1.75" stroke-linecap="round" stroke-linejoin="round">
      <path d="M5 3h11l3 3v14a3 3 0 0 1-3 3H5a3 3 0 0 1-3-3V6a3 3 0 0 1 3-3z"/>
      <path d="M7 3v6h7"/>
      <rect x="7" y="13" width="10" height="7" rx="2"/>
    </symbol>

    <symbol id="icon-shield" viewBox="0 0 24 24" fill="none" stroke="currentColor" stroke-width="1.75" stroke-linecap="round" stroke-linejoin="round">
      <path d="M12 22s8-3.8 8-10.5V6l-8-3-8 3v5.5C4 18.2 12 22 12 22z"/>
    </symbol>

    <symbol id="icon-wrench" viewBox="0 0 24 24" fill="none" stroke="currentColor" stroke-width="1.75" stroke-linecap="round" stroke-linejoin="round">
      <path d="M21 3a6 6 0 0 1-7.1 7.1L7 17l-3 3a2.1 2.1 0 1 1-3-3l3-3 6.9-6.9A6 6 0 0 1 21 3z"/>
    </symbol>

    <!-- Статусные круги как заливка currentColor -->
    <symbol id="icon-circle-green" viewBox="0 0 24 24">
      <circle cx="12" cy="12" r="10" fill="currentColor"/>
    </symbol>
    <symbol id="icon-circle-red" viewBox="0 0 24 24">
      <circle cx="12" cy="12" r="10" fill="currentColor"/>
    </symbol>
    <symbol id="icon-circle-yellow" viewBox="0 0 24 24">
      <circle cx="12" cy="12" r="10" fill="currentColor"/>
    </symbol>
    <symbol id="icon-circle-white" viewBox="0 0 24 24">
      <circle cx="12" cy="12" r="10" fill="currentColor"/>
    </symbol>

    <symbol id="icon-inbox" viewBox="0 0 24 24" fill="none" stroke="currentColor" stroke-width="1.75" stroke-linecap="round" stroke-linejoin="round">
      <path d="M3.5 7.2L6 3.8h12l2.5 3.4V18a3 3 0 0 1-3 3H6.5a3 3 0 0 1-3-3V7.2z"/>
      <path d="M3.5 12h4l2 3h5l2-3h4"/>
    </symbol>

    <symbol id="icon-ema" viewBox="0 0 24 24" fill="none" stroke="currentColor" stroke-width="1.75" stroke-linecap="round" stroke-linejoin="round">
      <path d="M3 14c2-4 5-6 8-3 3 3 6-6 10-7"/>
      <circle cx="8" cy="11" r="1.4" fill="currentColor"/>
      <circle cx="13" cy="13" r="1.4" fill="currentColor"/>
    </symbol>
  </defs>
</svg>
