<svg xmlns="http://www.w3.org/2000/svg" style="display: none;">
  <defs>
    <!-- Робот -->
    <symbol id="icon-robot" viewBox="0 0 24 24">
      <path d="M12 2c.5 0 1 .2 1.3.6L15 4.5h2c1.1 0 2 .9 2 2v11c0 1.1-.9 2-2 2H7c-1.1 0-2-.9-2-2v-11c0-1.1.9-2 2-2h2l1.7-1.9c.3-.4.8-.6 1.3-.6zM9 10c-.6 0-1 .4-1 1s.4 1 1 1 1-.4 1-1-.4-1-1-1zm6 0c-.6 0-1 .4-1 1s.4 1 1 1 1-.4 1-1-.4-1-1-1zm-6 4h6v2H9v-2z"/>
    </symbol>
    
    <!-- Графики/Статистика -->
    <symbol id="icon-chart" viewBox="0 0 24 24">
      <path d="M3 3v16c0 1.1.9 2 2 2h16v-2H5V3H3zm16 5v8h2V8h-2zM9 13v3h2v-3H9zm4-5v8h2V8h-2zm-8 5v3h2v-3H5z"/>
    </symbol>
    
    <!-- Деньги/Доллар -->
    <symbol id="icon-money" viewBox="0 0 24 24">
      <path d="M11.8 10.9c-2.27-.59-3-1.2-3-2.15 0-1.09 1.01-1.85 2.7-1.85 1.78 0 2.44.85 2.5 2.1h2.21c-.07-1.72-1.12-3.3-3.21-3.81V3h-3v2.16c-1.94.42-3.5 1.68-3.5 3.61 0 2.31 1.91 3.46 4.7 4.13 2.5.6 3 1.48 3 2.41 0 .69-.49 1.79-2.7 1.79-2.06 0-2.87-.92-2.98-2.1h-2.2c.12 2.19 1.76 3.42 3.68 3.83V21h3v-2.15c1.95-.37 3.5-1.5 3.5-3.55 0-2.84-2.43-3.81-4.7-4.4z"/>
    </symbol>
    
    <!-- Тренд вверх -->
    <symbol id="icon-trend-up" viewBox="0 0 24 24">
      <path d="M16 6l2.29 2.29-4.88 4.88-4-4L2 16.59 3.41 18l6-6 4 4 6.3-6.29L22 12V6z"/>
    </symbol>
    
    <!-- Тренд вниз -->
    <symbol id="icon-trend-down" viewBox="0 0 24 24">
      <path d="M16 18l2.29-2.29-4.88-4.88-4 4L2 7.41 3.41 6l6 6 4-4 6.3 6.29L22 12v6z"/>
    </symbol>
    
    <!-- Предупреждение -->
    <symbol id="icon-warning" viewBox="0 0 24 24">
      <path d="M1 21h22L12 2 1 21zm12-3h-2v-2h2v2zm0-4h-2v-4h2v4z"/>
    </symbol>
    
    <!-- Галочка/Успех -->
    <symbol id="icon-check" viewBox="0 0 24 24">
      <path d="M9 16.17L4.83 12l-1.42 1.41L9 19 21 7l-1.41-1.41z"/>
    </symbol>
    
    <!-- Крестик/Закрыть -->
    <symbol id="icon-close" viewBox="0 0 24 24">
      <path d="M19 6.41L17.59 5 12 10.59 6.41 5 5 6.41 10.59 12 5 17.59 6.41 19 12 13.41 17.59 19 19 17.59 13.41 12z"/>
    </symbol>
    
    <!-- Пауза -->
    <symbol id="icon-pause" viewBox="0 0 24 24">
      <path d="M6 19h4V5H6v14zm8-14v14h4V5h-4z"/>
    </symbol>
    
    <!-- Играть/Старт -->
    <symbol id="icon-play" viewBox="0 0 24 24">
      <path d="M8 5v14l11-7z"/>
    </symbol>
    
    <!-- Обновить -->
    <symbol id="icon-refresh" viewBox="0 0 24 24">
      <path d="M17.65 6.35C16.2 4.9 14.21 4 12 4c-4.42 0-7.99 3.58-7.99 8s3.57 8 7.99 8c3.73 0 6.84-2.55 7.73-6h-2.08c-.82 2.33-3.04 4-5.65 4-3.31 0-6-2.69-6-6s2.69-6 6-6c1.66 0 3.14.69 4.22 1.78L13 11h7V4l-2.35 2.35z"/>
    </symbol>
    
    <!-- Список/Меню -->
    <symbol id="icon-list" viewBox="0 0 24 24">
      <path d="M3 13h2v-2H3v2zm0 4h2v-2H3v2zm0-8h2V7H3v2zm4 4h14v-2H7v2zm0 4h14v-2H7v2zM7 7v2h14V7H7z"/>
    </symbol>
    
    <!-- Настройки -->
    <symbol id="icon-settings" viewBox="0 0 24 24">
      <path d="M19.14 12.94c.04-.3.06-.61.06-.94 0-.32-.02-.64-.07-.94l2.03-1.58c.18-.14.23-.41.12-.61l-1.92-3.32c-.12-.22-.37-.29-.59-.22l-2.39.96c-.5-.38-1.03-.7-1.62-.94l-.36-2.54c-.04-.24-.24-.41-.48-.41h-3.84c-.24 0-.43.17-.47.41l-.36 2.54c-.59.24-1.13.57-1.62.94l-2.39-.96c-.22-.08-.47 0-.59.22L2.74 8.87c-.12.21-.08.47.12.61l2.03 1.58c-.05.3-.09.63-.09.94s.02.64.07.94l-2.03 1.58c-.18.14-.23.41-.12.61l1.92 3.32c.12.22.37.29.59.22l2.39-.96c.5.38 1.03.7 1.62.94l.36 2.54c.05.24.24.41.48.41h3.84c.24 0 .44-.17.47-.41l.36-2.54c.59-.24 1.13-.56 1.62-.94l2.39.96c.22.08.47 0 .59-.22l1.92-3.32c.12-.22.07-.47-.12-.61l-2.01-1.58zM12 15.6c-1.98 0-3.6-1.62-3.6-3.6s1.62-3.6 3.6-3.6 3.6 1.62 3.6 3.6-1.62 3.6-3.6 3.6z"/>
    </symbol>
    
    <!-- Кошелек/Портфель -->
    <symbol id="icon-wallet" viewBox="0 0 24 24">
      <path d="M21 7.28V5c0-1.1-.9-2-2-2H5c-1.11 0-2 .9-2 2v14c0 1.1.89 2 2 2h14c1.1 0 2-.9 2-2v-2.28c.59-.35 1-.98 1-1.72V9c0-.74-.41-1.37-1-1.72zM20 9v6h-7V9h7zM5 19V5h14v2h-6c-1.1 0-2 .9-2 2v6c0 1.1.9 2 2 2h6v2H5z"/>
      <circle cx="16" cy="12" r="1.5"/>
    </symbol>
    
    <!-- Цель -->
    <symbol id="icon-target" viewBox="0 0 24 24">
      <path d="M12 2C6.48 2 2 6.48 2 12s4.48 10 10 10 10-4.48 10-10S17.52 2 12 2zm0 18c-4.42 0-8-3.58-8-8s3.58-8 8-8 8 3.58 8 8-3.58 8-8 8zm0-14c-3.31 0-6 2.69-6 6s2.69 6 6 6 6-2.69 6-6-2.69-6-6-6zm0 10c-2.21 0-4-1.79-4-4s1.79-4 4-4 4 1.79 4 4-1.79 4-4 4zm0-6c-1.1 0-2 .9-2 2s.9 2 2 2 2-.9 2-2-.9-2-2-2z"/>
    </symbol>
    
    <!-- Звонок/Уведомление -->
    <symbol id="icon-bell" viewBox="0 0 24 24">
      <path d="M12 22c1.1 0 2-.9 2-2h-4c0 1.1.89 2 2 2zm6-6v-5c0-3.07-1.64-5.64-4.5-6.32V4c0-.83-.67-1.5-1.5-1.5s-1.5.67-1.5 1.5v.68C7.63 5.36 6 7.92 6 11v5l-2 2v1h16v-1l-2-2z"/>
    </symbol>
    
    <!-- Телефон/Мобильный -->
    <symbol id="icon-phone" viewBox="0 0 24 24">
      <path d="M17 1.01L7 1c-1.1 0-2 .9-2 2v18c0 1.1.9 2 2 2h10c1.1 0 2-.9 2-2V3c0-1.1-.9-1.99-2-1.99zM17 19H7V5h10v14z"/>
    </symbol>
    
    <!-- Кредитная карта -->
    <symbol id="icon-card" viewBox="0 0 24 24">
      <path d="M20 4H4c-1.11 0-1.99.89-1.99 2L2 18c0 1.11.89 2 2 2h16c1.11 0 2-.89 2-2V6c0-1.11-.89-2-2-2zm0 14H4v-6h16v6zm0-10H4V6h16v2z"/>
    </symbol>
    
    <!-- Стоп -->
    <symbol id="icon-stop" viewBox="0 0 24 24">
      <path d="M6 6h12v12H6z"/>
    </symbol>
    
    <!-- Дом -->
    <symbol id="icon-home" viewBox="0 0 24 24">
      <path d="M10 20v-6h4v6h5v-8h3L12 3 2 12h3v8z"/>
    </symbol>
    
    <!-- Геймпад/Управление -->
    <symbol id="icon-gamepad" viewBox="0 0 24 24">
      <path d="M15 7.5V2H9v5.5l3 3 3-3zM7.5 9H2v6h5.5l3-3-3-3zM9 16.5V22h6v-5.5l-3-3-3 3zM16.5 9l-3 3 3 3H22V9h-5.5z"/>
    </symbol>
    
    <!-- Документ/История -->
    <symbol id="icon-document" viewBox="0 0 24 24">
      <path d="M14 2H6c-1.1 0-1.99.9-1.99 2L4 20c0 1.1.89 2 1.99 2H18c1.1 0 2-.9 2-2V8l-6-6zm2 16H8v-2h8v2zm0-4H8v-2h8v2zm-3-5V3.5L18.5 9H13z"/>
    </symbol>
    
    <!-- Маркер/Позиция -->
    <symbol id="icon-pin" viewBox="0 0 24 24">
      <path d="M12 2C8.13 2 5 5.13 5 9c0 5.25 7 13 7 13s7-7.75 7-13c0-3.87-3.13-7-7-7zm0 9.5c-1.38 0-2.5-1.12-2.5-2.5s1.12-2.5 2.5-2.5 2.5 1.12 2.5 2.5-1.12 2.5-2.5 2.5z"/>
    </symbol>
    
    <!-- Мусорка/Удалить -->
    <symbol id="icon-trash" viewBox="0 0 24 24">
      <path d="M6 19c0 1.1.9 2 2 2h8c1.1 0 2-.9 2-2V7H6v12zM19 4h-3.5l-1-1h-5l-1 1H5v2h14V4z"/>
    </symbol>
    
    <!-- Сохранить/Дискета -->
    <symbol id="icon-save" viewBox="0 0 24 24">
      <path d="M17 3H5c-1.11 0-2 .9-2 2v14c0 1.1.89 2 2 2h14c1.1 0 2-.9 2-2V7l-4-4zm-5 16c-1.66 0-3-1.34-3-3s1.34-3 3-3 3 1.34 3 3-1.34 3-3 3zm3-10H5V5h10v4z"/>
    </symbol>
    
    <!-- Щит/Защита -->
    <symbol id="icon-shield" viewBox="0 0 24 24">
      <path d="M12 1L3 5v6c0 5.55 3.84 10.74 9 12 5.16-1.26 9-6.45 9-12V5l-9-4zm0 10.99h7c-.53 4.12-3.28 7.79-7 8.94V12H5V6.3l7-3.11v8.8z"/>
    </symbol>
    
    <!-- Инструменты/Гаечный ключ -->
    <symbol id="icon-wrench" viewBox="0 0 24 24">
      <path d="M22.7 19l-9.1-9.1c.9-2.3.4-5-1.5-6.9-2-2-5-2.4-7.4-1.3L9 6 6 9 1.6 4.7C.4 7.1.9 10.1 2.9 12.1c1.9 1.9 4.6 2.4 6.9 1.5l9.1 9.1c.4.4 1 .4 1.4 0l2.3-2.3c.5-.4.5-1.1.1-1.4z"/>
    </symbol>
    
    <!-- Круги для статусов -->
    <symbol id="icon-circle-green" viewBox="0 0 24 24">
      <circle fill="#4ade80" cx="12" cy="12" r="10"/>
    </symbol>
    
    <symbol id="icon-circle-red" viewBox="0 0 24 24">
      <circle fill="#f87171" cx="12" cy="12" r="10"/>
    </symbol>
    
    <symbol id="icon-circle-yellow" viewBox="0 0 24 24">
      <circle fill="#fbbf24" cx="12" cy="12" r="10"/>
    </symbol>
    
    <symbol id="icon-circle-white" viewBox="0 0 24 24">
      <circle fill="#e5e7eb" cx="12" cy="12" r="10"/>
    </symbol>
    
    <!-- Пустая коробка -->
    <symbol id="icon-inbox" viewBox="0 0 24 24">
      <path d="M19 3H4.99c-1.11 0-1.98.89-1.98 2L3 19c0 1.1.88 2 1.99 2H19c1.1 0 2-.9 2-2V5c0-1.11-.9-2-2-2zm0 12h-4c0 1.66-1.35 3-3 3s-3-1.34-3-3H4.99V5H19v10z"/>
    </symbol>
    
    <!-- EMA Линия -->
    <symbol id="icon-ema" viewBox="0 0 24 24">
      <path d="M3.5 18.49l6-6.01 4 4L22 6.92l-1.41-1.41-7.09 7.97-4-4L2 16.99z"/>
    </symbol>
  </defs>
</svg>
